<mxfile host="app.diagrams.net" agent="Mozilla/5.0 (Macintosh; Intel Mac OS X 10_15_7) AppleWebKit/605.1.15 (KHTML, like Gecko) Version/16.6 Safari/605.1.15" version="24.7.12">
  <diagram name="Page-1" id="2YBvvXClWsGukQMizWep">
    <mxGraphModel dx="788" dy="704" grid="1" gridSize="10" guides="1" tooltips="1" connect="1" arrows="1" fold="1" page="1" pageScale="1" pageWidth="850" pageHeight="1100" math="0" shadow="0">
      <root>
        <mxCell id="0" />
        <mxCell id="1" parent="0" />
        <mxCell id="aM9ryv3xv72pqoxQDRHE-1" value=":数据主体" style="shape=umlLifeline;perimeter=lifelinePerimeter;whiteSpace=wrap;html=1;container=0;dropTarget=0;collapsible=0;recursiveResize=0;outlineConnect=0;portConstraint=eastwest;newEdgeStyle={&quot;edgeStyle&quot;:&quot;elbowEdgeStyle&quot;,&quot;elbow&quot;:&quot;vertical&quot;,&quot;curved&quot;:0,&quot;rounded&quot;:0};" parent="1" vertex="1">
          <mxGeometry x="40" y="40" width="100" height="370" as="geometry" />
        </mxCell>
        <mxCell id="aM9ryv3xv72pqoxQDRHE-2" value="" style="html=1;points=[];perimeter=orthogonalPerimeter;outlineConnect=0;targetShapes=umlLifeline;portConstraint=eastwest;newEdgeStyle={&quot;edgeStyle&quot;:&quot;elbowEdgeStyle&quot;,&quot;elbow&quot;:&quot;vertical&quot;,&quot;curved&quot;:0,&quot;rounded&quot;:0};" parent="aM9ryv3xv72pqoxQDRHE-1" vertex="1">
          <mxGeometry x="45" y="70" width="10" height="250" as="geometry" />
        </mxCell>
        <mxCell id="aM9ryv3xv72pqoxQDRHE-4" value="" style="html=1;points=[];perimeter=orthogonalPerimeter;outlineConnect=0;targetShapes=umlLifeline;portConstraint=eastwest;newEdgeStyle={&quot;edgeStyle&quot;:&quot;elbowEdgeStyle&quot;,&quot;elbow&quot;:&quot;vertical&quot;,&quot;curved&quot;:0,&quot;rounded&quot;:0};" parent="aM9ryv3xv72pqoxQDRHE-1" vertex="1">
          <mxGeometry x="50" y="120" width="10" height="80" as="geometry" />
        </mxCell>
        <mxCell id="aM9ryv3xv72pqoxQDRHE-5" value=":数据提供方" style="shape=umlLifeline;perimeter=lifelinePerimeter;whiteSpace=wrap;html=1;container=0;dropTarget=0;collapsible=0;recursiveResize=0;outlineConnect=0;portConstraint=eastwest;newEdgeStyle={&quot;edgeStyle&quot;:&quot;elbowEdgeStyle&quot;,&quot;elbow&quot;:&quot;vertical&quot;,&quot;curved&quot;:0,&quot;rounded&quot;:0};" parent="1" vertex="1">
          <mxGeometry x="220" y="40" width="100" height="370" as="geometry" />
        </mxCell>
        <mxCell id="aM9ryv3xv72pqoxQDRHE-7" value="1.生成数据" style="html=1;verticalAlign=bottom;endArrow=block;edgeStyle=elbowEdgeStyle;elbow=vertical;curved=0;rounded=0;" parent="1" edge="1">
          <mxGeometry relative="1" as="geometry">
            <mxPoint x="95" y="160" as="sourcePoint" />
            <Array as="points">
              <mxPoint x="180" y="160" />
            </Array>
            <mxPoint x="265" y="160" as="targetPoint" />
          </mxGeometry>
        </mxCell>
        <mxCell id="aM9ryv3xv72pqoxQDRHE-9" value="9.数据溯源" style="html=1;verticalAlign=bottom;endArrow=block;edgeStyle=elbowEdgeStyle;elbow=vertical;curved=0;rounded=0;" parent="1" edge="1">
          <mxGeometry relative="1" as="geometry">
            <mxPoint x="265" y="240" as="sourcePoint" />
            <Array as="points">
              <mxPoint x="190" y="240" />
            </Array>
            <mxPoint x="100" y="240" as="targetPoint" />
          </mxGeometry>
        </mxCell>
        <mxCell id="STF5WQe0J77yg3WrmxCV-9" value="" style="html=1;points=[];perimeter=orthogonalPerimeter;outlineConnect=0;targetShapes=umlLifeline;portConstraint=eastwest;newEdgeStyle={&quot;edgeStyle&quot;:&quot;elbowEdgeStyle&quot;,&quot;elbow&quot;:&quot;vertical&quot;,&quot;curved&quot;:0,&quot;rounded&quot;:0};" vertex="1" parent="1">
          <mxGeometry x="265" y="110" width="10" height="250" as="geometry" />
        </mxCell>
        <mxCell id="STF5WQe0J77yg3WrmxCV-10" value="" style="html=1;points=[];perimeter=orthogonalPerimeter;outlineConnect=0;targetShapes=umlLifeline;portConstraint=eastwest;newEdgeStyle={&quot;edgeStyle&quot;:&quot;elbowEdgeStyle&quot;,&quot;elbow&quot;:&quot;vertical&quot;,&quot;curved&quot;:0,&quot;rounded&quot;:0};" vertex="1" parent="1">
          <mxGeometry x="270" y="160" width="10" height="180" as="geometry" />
        </mxCell>
        <mxCell id="STF5WQe0J77yg3WrmxCV-11" value=":数据管理方" style="shape=umlLifeline;perimeter=lifelinePerimeter;whiteSpace=wrap;html=1;container=0;dropTarget=0;collapsible=0;recursiveResize=0;outlineConnect=0;portConstraint=eastwest;newEdgeStyle={&quot;edgeStyle&quot;:&quot;elbowEdgeStyle&quot;,&quot;elbow&quot;:&quot;vertical&quot;,&quot;curved&quot;:0,&quot;rounded&quot;:0};" vertex="1" parent="1">
          <mxGeometry x="400" y="40" width="100" height="370" as="geometry" />
        </mxCell>
        <mxCell id="STF5WQe0J77yg3WrmxCV-13" value="2.数据托管/汇聚/授权" style="html=1;verticalAlign=bottom;endArrow=block;edgeStyle=elbowEdgeStyle;elbow=vertical;curved=0;rounded=0;" edge="1" parent="1" source="STF5WQe0J77yg3WrmxCV-9">
          <mxGeometry relative="1" as="geometry">
            <mxPoint x="375" y="130" as="sourcePoint" />
            <Array as="points">
              <mxPoint x="360" y="120" />
            </Array>
            <mxPoint x="445" y="120" as="targetPoint" />
          </mxGeometry>
        </mxCell>
        <mxCell id="STF5WQe0J77yg3WrmxCV-14" value="13.收益分成" style="html=1;verticalAlign=bottom;endArrow=block;endSize=8;edgeStyle=elbowEdgeStyle;elbow=vertical;curved=0;rounded=0;endFill=1;" edge="1" parent="1">
          <mxGeometry relative="1" as="geometry">
            <mxPoint x="280" y="340" as="targetPoint" />
            <Array as="points">
              <mxPoint x="410" y="340" />
              <mxPoint x="370" y="310" />
            </Array>
            <mxPoint x="445" y="310" as="sourcePoint" />
          </mxGeometry>
        </mxCell>
        <mxCell id="STF5WQe0J77yg3WrmxCV-15" value="4.数据治理" style="html=1;verticalAlign=bottom;endArrow=block;edgeStyle=elbowEdgeStyle;elbow=vertical;curved=0;rounded=0;" edge="1" parent="1" target="STF5WQe0J77yg3WrmxCV-10">
          <mxGeometry relative="1" as="geometry">
            <mxPoint x="445" y="160" as="sourcePoint" />
            <Array as="points">
              <mxPoint x="370" y="160" />
            </Array>
          </mxGeometry>
        </mxCell>
        <mxCell id="STF5WQe0J77yg3WrmxCV-18" value="" style="html=1;points=[];perimeter=orthogonalPerimeter;outlineConnect=0;targetShapes=umlLifeline;portConstraint=eastwest;newEdgeStyle={&quot;edgeStyle&quot;:&quot;elbowEdgeStyle&quot;,&quot;elbow&quot;:&quot;vertical&quot;,&quot;curved&quot;:0,&quot;rounded&quot;:0};" vertex="1" parent="1">
          <mxGeometry x="445" y="109" width="10" height="251" as="geometry" />
        </mxCell>
        <mxCell id="STF5WQe0J77yg3WrmxCV-20" value=":数据需求方" style="shape=umlLifeline;perimeter=lifelinePerimeter;whiteSpace=wrap;html=1;container=0;dropTarget=0;collapsible=0;recursiveResize=0;outlineConnect=0;portConstraint=eastwest;newEdgeStyle={&quot;edgeStyle&quot;:&quot;elbowEdgeStyle&quot;,&quot;elbow&quot;:&quot;vertical&quot;,&quot;curved&quot;:0,&quot;rounded&quot;:0};" vertex="1" parent="1">
          <mxGeometry x="580" y="39" width="100" height="371" as="geometry" />
        </mxCell>
        <mxCell id="STF5WQe0J77yg3WrmxCV-21" value="" style="html=1;points=[];perimeter=orthogonalPerimeter;outlineConnect=0;targetShapes=umlLifeline;portConstraint=eastwest;newEdgeStyle={&quot;edgeStyle&quot;:&quot;elbowEdgeStyle&quot;,&quot;elbow&quot;:&quot;vertical&quot;,&quot;curved&quot;:0,&quot;rounded&quot;:0};" vertex="1" parent="STF5WQe0J77yg3WrmxCV-20">
          <mxGeometry x="47" y="80" width="10" height="240" as="geometry" />
        </mxCell>
        <mxCell id="STF5WQe0J77yg3WrmxCV-22" value="" style="html=1;verticalAlign=bottom;endArrow=block;edgeStyle=elbowEdgeStyle;elbow=vertical;curved=0;rounded=0;" edge="1" parent="1">
          <mxGeometry x="0.1047" y="10" relative="1" as="geometry">
            <mxPoint x="455" y="298" as="sourcePoint" />
            <Array as="points">
              <mxPoint x="570" y="298" />
              <mxPoint x="540" y="177" />
            </Array>
            <mxPoint x="627" y="298" as="targetPoint" />
            <mxPoint as="offset" />
          </mxGeometry>
        </mxCell>
        <mxCell id="STF5WQe0J77yg3WrmxCV-23" value="" style="html=1;verticalAlign=bottom;endArrow=block;endSize=8;edgeStyle=elbowEdgeStyle;elbow=vertical;curved=0;rounded=0;endFill=1;" edge="1" parent="1">
          <mxGeometry x="-0.3372" y="-19" relative="1" as="geometry">
            <mxPoint x="455" y="325" as="targetPoint" />
            <Array as="points">
              <mxPoint x="610" y="325" />
              <mxPoint x="550" y="304" />
            </Array>
            <mxPoint x="627" y="325" as="sourcePoint" />
            <mxPoint as="offset" />
          </mxGeometry>
        </mxCell>
        <mxCell id="STF5WQe0J77yg3WrmxCV-27" value="&lt;span style=&quot;font-size: 11px;&quot;&gt;12.收益分成&lt;/span&gt;" style="text;html=1;align=center;verticalAlign=middle;resizable=0;points=[];autosize=1;strokeColor=none;fillColor=none;" vertex="1" parent="1">
          <mxGeometry x="495" y="320" width="80" height="30" as="geometry" />
        </mxCell>
        <mxCell id="STF5WQe0J77yg3WrmxCV-34" value="" style="edgeStyle=elbowEdgeStyle;elbow=horizontal;endArrow=block;html=1;curved=0;rounded=0;endSize=6;startSize=6;endFill=1;" edge="1" parent="1" target="STF5WQe0J77yg3WrmxCV-21">
          <mxGeometry width="50" height="50" relative="1" as="geometry">
            <mxPoint x="638" y="187.5" as="sourcePoint" />
            <mxPoint x="640" y="223" as="targetPoint" />
            <Array as="points">
              <mxPoint x="710" y="208.5" />
            </Array>
          </mxGeometry>
        </mxCell>
        <mxCell id="STF5WQe0J77yg3WrmxCV-36" value="&lt;span style=&quot;font-size: 11px;&quot;&gt;11.数据使用&lt;/span&gt;" style="text;html=1;align=center;verticalAlign=middle;resizable=0;points=[];autosize=1;strokeColor=none;fillColor=none;" vertex="1" parent="1">
          <mxGeometry x="635" y="160" width="80" height="30" as="geometry" />
        </mxCell>
        <mxCell id="STF5WQe0J77yg3WrmxCV-38" value="" style="edgeStyle=elbowEdgeStyle;elbow=horizontal;endArrow=block;html=1;curved=0;rounded=0;endSize=6;startSize=6;endFill=1;" edge="1" parent="1">
          <mxGeometry width="50" height="50" relative="1" as="geometry">
            <mxPoint x="456" y="130" as="sourcePoint" />
            <mxPoint x="455" y="151.5" as="targetPoint" />
            <Array as="points">
              <mxPoint x="570" y="140" />
            </Array>
          </mxGeometry>
        </mxCell>
        <mxCell id="STF5WQe0J77yg3WrmxCV-39" value="&lt;span style=&quot;font-size: 11px;&quot;&gt;3.数据集成、质量改进、标准化&lt;/span&gt;" style="text;html=1;align=center;verticalAlign=middle;resizable=0;points=[];autosize=1;strokeColor=none;fillColor=none;" vertex="1" parent="1">
          <mxGeometry x="448" y="103" width="180" height="30" as="geometry" />
        </mxCell>
        <mxCell id="STF5WQe0J77yg3WrmxCV-40" value="" style="edgeStyle=elbowEdgeStyle;elbow=horizontal;endArrow=block;html=1;curved=0;rounded=0;endSize=6;startSize=6;endFill=1;" edge="1" parent="1">
          <mxGeometry width="50" height="50" relative="1" as="geometry">
            <mxPoint x="456" y="178.25" as="sourcePoint" />
            <mxPoint x="455" y="199.75" as="targetPoint" />
            <Array as="points">
              <mxPoint x="570" y="190" />
            </Array>
          </mxGeometry>
        </mxCell>
        <mxCell id="STF5WQe0J77yg3WrmxCV-41" value="&lt;span style=&quot;font-size: 11px;&quot;&gt;5.数据质量评估、定价&lt;/span&gt;" style="text;html=1;align=center;verticalAlign=middle;resizable=0;points=[];autosize=1;strokeColor=none;fillColor=none;" vertex="1" parent="1">
          <mxGeometry x="450" y="150" width="130" height="30" as="geometry" />
        </mxCell>
        <mxCell id="STF5WQe0J77yg3WrmxCV-42" value="6.数据服务请求" style="html=1;verticalAlign=bottom;endArrow=block;edgeStyle=elbowEdgeStyle;elbow=vertical;curved=0;rounded=0;" edge="1" parent="1" source="STF5WQe0J77yg3WrmxCV-21">
          <mxGeometry relative="1" as="geometry">
            <mxPoint x="619" y="230" as="sourcePoint" />
            <Array as="points">
              <mxPoint x="544" y="230" />
            </Array>
            <mxPoint x="454" y="230" as="targetPoint" />
          </mxGeometry>
        </mxCell>
        <mxCell id="STF5WQe0J77yg3WrmxCV-45" value="&lt;span style=&quot;font-size: 11px;&quot;&gt;10.数据服务&lt;/span&gt;" style="text;html=1;align=center;verticalAlign=middle;resizable=0;points=[];autosize=1;strokeColor=none;fillColor=none;" vertex="1" parent="1">
          <mxGeometry x="495" y="270" width="80" height="30" as="geometry" />
        </mxCell>
        <mxCell id="STF5WQe0J77yg3WrmxCV-46" value="" style="edgeStyle=elbowEdgeStyle;elbow=horizontal;endArrow=block;html=1;curved=0;rounded=0;endSize=6;startSize=6;endFill=1;" edge="1" parent="1">
          <mxGeometry width="50" height="50" relative="1" as="geometry">
            <mxPoint x="455" y="250" as="sourcePoint" />
            <mxPoint x="454" y="271.5" as="targetPoint" />
            <Array as="points">
              <mxPoint x="527" y="271" />
            </Array>
          </mxGeometry>
        </mxCell>
        <mxCell id="STF5WQe0J77yg3WrmxCV-47" value="&lt;span style=&quot;font-size: 11px;&quot;&gt;7.数据确权/溯源&lt;/span&gt;" style="text;html=1;align=center;verticalAlign=middle;resizable=0;points=[];autosize=1;strokeColor=none;fillColor=none;" vertex="1" parent="1">
          <mxGeometry x="521" y="245" width="100" height="30" as="geometry" />
        </mxCell>
        <mxCell id="STF5WQe0J77yg3WrmxCV-48" value="8.收益确权/溯源" style="html=1;verticalAlign=bottom;endArrow=block;endSize=8;edgeStyle=elbowEdgeStyle;elbow=vertical;curved=0;rounded=0;endFill=1;" edge="1" parent="1">
          <mxGeometry relative="1" as="geometry">
            <mxPoint x="280" y="290" as="targetPoint" />
            <Array as="points">
              <mxPoint x="410" y="290" />
              <mxPoint x="370" y="260" />
            </Array>
            <mxPoint x="445" y="260" as="sourcePoint" />
          </mxGeometry>
        </mxCell>
      </root>
    </mxGraphModel>
  </diagram>
</mxfile>
